<svg id="Layer_1" data-name="Layer 1" xmlns="http://www.w3.org/2000/svg" viewBox="0 0 213.34 85.63"><defs><style>.cls-1{fill:#2d4aa6;}.cls-2{fill:#fff;}.cls-3{font-size:21px;fill:#f2f2f2;font-family:Verdana-Bold, Verdana;font-weight:700;}</style></defs><title>fb</title><rect class="cls-1" width="213.34" height="85.63" rx="10" ry="10"/><rect class="cls-2" x="159.51" y="32.36" width="33.21" height="11.87"/><path class="cls-2" d="M222.37,53.48c-.38-.22-4.86-2.66-9.05-.43A8.56,8.56,0,0,0,210,56.32c.08-1.46.21-2.76.33-3.86.66-5.62,1.73-8.31.18-10.26a4,4,0,0,0-1.09-.94q1.1-.14,2.25-.25a59.68,59.68,0,0,1,10.7,0Z" transform="translate(-28.52 -32.34)"/><path class="cls-2" d="M211,105.55H197.34l-.17-52.4,13.74-.95-.12.41a25.22,25.22,0,0,0-.67,3.18,33.51,33.51,0,0,0,.1,8.46C210.7,67.26,211.14,76.77,211,105.55Z" transform="translate(-28.52 -32.34)"/><path class="cls-2" d="M211.63,51.91a2.23,2.23,0,0,0-1.29,1.22,1.49,1.49,0,0,0,0,.77c.32,1.34-2,10.51-6.17,10.71-3.17.15-6.22-5-6.85-9.17a10.91,10.91,0,0,1,.13-4.34c1.56-6.47,9.14-10.88,14.21-9.7a3.57,3.57,0,0,1,2.16,1.21C215.74,45.19,213.6,51,211.63,51.91Z" transform="translate(-28.52 -32.34)"/><path class="cls-2" d="M188,45.93" transform="translate(-28.52 -32.34)"/><text class="cls-3" transform="translate(8.7 49.26)">Share this</text></svg>