<svg id="Layer_1" data-name="Layer 1" xmlns="http://www.w3.org/2000/svg" viewBox="0 0 204.17 251.98"><defs><style>.cls-1{fill:none;}.cls-2{fill:#fff;}.cls-3{stroke:#000;stroke-miterlimit:10;stroke-width:0.25px;}</style></defs><title>morning_brew</title><path d="M63.29,51.21a9.58,9.58,0,0,0-5.49-1.32c-1.39.11-3.77.65-6.73,3.66C46.45,58.25,45.25,64,43.33,71.07c-1.17,4.29-3,10.61-5.89,18.35l8.62,8.22c.6-2,1.32-4.3,2.17-6.94,0,0,.82-2.53,1.67-5.06C51.32,81.4,56.19,68.5,63.29,51.21Z" transform="translate(-6.6 -6.02)"/><path d="M63.29,133.11l-16.22,5.1a67.22,67.22,0,0,0,4.17-11.12c4.35-15.71.8-26.61,0-44a157,157,0,0,1,1.44-29.22l10.61-2.76a105,105,0,0,1,1.32,19.62c-.11,4.19-.41,6.11-.83,11.74-.64,8.71-.68,15-.85,23.09C62.69,117.31,63,126.89,63.29,133.11Z" transform="translate(-6.6 -6.02)"/><path d="M113.29,168.79a9.1,9.1,0,0,0-3.74-.11,11.69,11.69,0,0,0-3.78,1.59,42,42,0,0,0-4.48,2.76c-2.23,1.58-8.11,5.77-15.06,6.95a22.6,22.6,0,0,0-4.13.83,18.32,18.32,0,0,0-6.3,3.65L55.18,110.19l36.94-8.72a44.84,44.84,0,0,0,8.7,19.5q1.47,7,3.18,14.14C106.84,146.92,110,158.16,113.29,168.79Z" transform="translate(-6.6 -6.02)"/><path d="M73.61,58.59l-9.25-9.94,9.9-11.74a10.49,10.49,0,0,1,5.46,3.91,10.64,10.64,0,0,1,1.58,3.43Z" transform="translate(-6.6 -6.02)"/><path d="M85.82,39c.32-7.53-1.39-20.41-8.74-23.76a10.82,10.82,0,0,0-4.14-.87,14.11,14.11,0,0,0-9.1,3.21,4,4,0,0,0-.68.81,8.73,8.73,0,0,0-.35,1v0l.07-.08a56.85,56.85,0,0,0-6.43,24.18,1.08,1.08,0,0,1,.64.18,1.18,1.18,0,0,1,.41.57c.15.39,1,1.24,4.2,3.27A6.16,6.16,0,0,1,61.32,45c0-.68.16-2.3,1.15-2.77a1.44,1.44,0,0,1,1.26,0c1.56.88.2,6.22.07,6.69l9.14-.76c3.84-2.66,4.67-3.21,4.68-3.19a2.33,2.33,0,0,0-1,1.11,2.93,2.93,0,0,0,.62,2.4c1.23-.43,2.54-.94,3.92-1.55s2.75-1.31,3.92-2A39.18,39.18,0,0,0,85.82,39Z" transform="translate(-6.6 -6.02)"/><path d="M79.77,47.09" transform="translate(-6.6 -6.02)"/><path d="M89.6,45.44" transform="translate(-6.6 -6.02)"/><path d="M94.34,105.51H81l-1.19-55A13,13,0,0,0,84.13,54c1.77.85,3,.67,5.85,1.45A31.44,31.44,0,0,1,94.28,57a30.62,30.62,0,0,1,1.33,10.18c-.37,8.88-4.72,12.64-5.71,19.8C89.34,91,89.63,97.25,94.34,105.51Z" transform="translate(-6.6 -6.02)"/><path d="M103.89,87.58a59.69,59.69,0,0,0-23.05-15.8,23.69,23.69,0,0,1,9.43-12.55,22.19,22.19,0,0,1,4.23-2.11A26.72,26.72,0,0,1,96.39,59c4.05,4.54,4.07,7.73,8.28,13.92a28,28,0,0,0,3.58,4.15,41.17,41.17,0,0,0,3.69,3.32Z" transform="translate(-6.6 -6.02)"/><path d="M95.44,56.89" transform="translate(-6.6 -6.02)"/><path d="M108.7,79a27.73,27.73,0,0,0-4.82,8.59,45.6,45.6,0,0,1-1.7,5.29,18,18,0,0,1-5.3,6.58l9,5.57c.8-1.16,1.6-2.4,2.39-3.71,4.79-8,6-10.89,6.14-13.74a9.88,9.88,0,0,0-.22-2.59A7.84,7.84,0,0,0,111,79.82,6.25,6.25,0,0,0,108.7,79Z" transform="translate(-6.6 -6.02)"/><path d="M82.73,99.38a86.11,86.11,0,0,0,12.64,10.06q1.21.79,2.41,1.51a8.27,8.27,0,0,0,2.27-.48c2.3-.84,3.62-2.52,5.43-4.9a35.52,35.52,0,0,0,2.8-4.27,33,33,0,0,1-15-6,31.66,31.66,0,0,1-5-4.53Z" transform="translate(-6.6 -6.02)"/><path d="M102.19,106.55" transform="translate(-6.6 -6.02)"/><path d="M114.69,90" transform="translate(-6.6 -6.02)"/><path d="M117.16,84.43" transform="translate(-6.6 -6.02)"/><path d="M89.67,249.45a5.64,5.64,0,0,1-2.64,3.8,5.54,5.54,0,0,1-7.14-2.1,6,6,0,0,1,.09-5.53c1.1-11.08,1.83-20.65,2.32-28.29,1.05-16.34,1-23.7.34-31.57-.39-4.44-.9-8.11-1.3-10.63h14.6c1.36,12.41.11,19.41-1,23.16-.12.42-.88,2.73-1.86,6-.69,2.29-1.47,4.87-2.3,8-1.7,6.36-2.55,9.62-2.64,13.38,0,1.4.06,2.78.25,5.52.33,4.81.75,6.55,1.05,10.58C89.58,243.56,89.72,246.2,89.67,249.45Z" transform="translate(-6.6 -6.02)"/><path d="M118.42,256.67a7.63,7.63,0,0,1-5.35,1.24,7,7,0,0,1-2.57-1,11.17,11.17,0,0,1-2-3.63c-1-3-.1-4.29.21-8.57.23-3.2-.5-5.86-1.95-11.18s-2-4.54-5.08-13.59c-.39-1.14-1-2.95-2-5.24-.51-1.21-.82-1.83-1.27-2.8C95.84,206.3,94,200.76,94,200.76h0l-4.29-26.7,13-3.12c.09.54.25,1.39.46,2.44.28,1.39.5,2.41.54,2.57a64,64,0,0,1,1,9.65c.12,4.69,1,6.05,3,18.54.61,3.87,1,6.55,1.2,8.55.21,1.76.31,3.52.76,6.18.34,2,.68,3.49.86,4.23.5,2.08,1,3.63,1.25,4.43,1.32,4.15,2,6.23,3,9.14C115.92,239.92,117.38,245.68,118.42,256.67Z" transform="translate(-6.6 -6.02)"/><rect y="63.2" width="11.02" height="14.08" rx="1.07" ry="1.07"/><path d="M47.86,90.57c-.39,2.18-.74,3.83-1,4.92-.16.68-.36,1.29-.64,2.17-.06.19-.1.34-.18.53a4.91,4.91,0,0,1-.91,1.44c-.73-.35-1.88-.93-3.22-1.74-5.71-3.45-7.85-6.78-12.69-10.8a51.21,51.21,0,0,0-7.9-5.38l5.49-7.2Z" transform="translate(-6.6 -6.02)"/><path d="M19.21,74.33a3.55,3.55,0,0,1,0,4c-1.41,2.06-4.9,1.62-4.94,2s3.85,1.84,6.18-.33A6,6,0,0,0,22,75.51a4.07,4.07,0,0,0-.93-2.87c-2.06-2-6.78.48-6.75.89S17.79,72.62,19.21,74.33Z" transform="translate(-6.6 -6.02)"/><path d="M23.61,80.18l-1,.94a4.62,4.62,0,0,1-3.18-1.72,4.26,4.26,0,0,1-.79-1.89v-.4a2.68,2.68,0,0,1,2.68-2.68h2.34c1.79.15,3,1,3,1.79a1.25,1.25,0,0,1-.36.89v.4A2.68,2.68,0,0,1,23.61,80.18Z" transform="translate(-6.6 -6.02)"/><path d="M21.15,73.56a.92.92,0,0,1,1.12-.65l1.28.49a1.38,1.38,0,0,1,.79.71.75.75,0,0,1,.06.56c-.12.3-.57.48-1.12.4l-1.47-.39A.92.92,0,0,1,21.15,73.56Z" transform="translate(-6.6 -6.02)"/><path d="M44.45,96.63" transform="translate(-6.6 -6.02)"/><path d="M50,83.88" transform="translate(-6.6 -6.02)"/><path d="M46.67,100.58" transform="translate(-6.6 -6.02)"/><path d="M33,45.35" transform="translate(-6.6 -6.02)"/><path d="M137.14,88.74a1.5,1.5,0,0,0,0-3,1.5,1.5,0,0,0,0,3Z" transform="translate(-6.6 -6.02)"/><path d="M137.14,89.72a1.5,1.5,0,0,0,0-3,1.5,1.5,0,0,0,0,3Z" transform="translate(-6.6 -6.02)"/><path d="M136.41,90.31a1.5,1.5,0,0,0,0-3,1.5,1.5,0,0,0,0,3Z" transform="translate(-6.6 -6.02)"/><path d="M136.6,90.41a1.5,1.5,0,0,0,0-3,1.5,1.5,0,0,0,0,3Z" transform="translate(-6.6 -6.02)"/><path d="M136.89,90.55a1.5,1.5,0,0,0,0-3,1.5,1.5,0,0,0,0,3Z" transform="translate(-6.6 -6.02)"/><path d="M137.24,90.55a1.5,1.5,0,0,0,0-3,1.5,1.5,0,0,0,0,3Z" transform="translate(-6.6 -6.02)"/><path d="M136.48,57.61a1.5,1.5,0,0,0,0-3,1.5,1.5,0,0,0,0,3Z" transform="translate(-6.6 -6.02)"/><path d="M136.48,57.3a1.5,1.5,0,0,0,0-3,1.5,1.5,0,0,0,0,3Z" transform="translate(-6.6 -6.02)"/><path d="M136.48,56.91a1.5,1.5,0,0,0,0-3,1.5,1.5,0,0,0,0,3Z" transform="translate(-6.6 -6.02)"/><path d="M136.37,56.56a1.5,1.5,0,0,0,0-3,1.5,1.5,0,0,0,0,3Z" transform="translate(-6.6 -6.02)"/><path d="M136.37,56.21a1.5,1.5,0,0,0,0-3,1.5,1.5,0,0,0,0,3Z" transform="translate(-6.6 -6.02)"/><path d="M136.86,52.8s-.34.14-.12.06l-.36.12c-.22.08-.43.19-.65.28s-.7.18-.81.53.58.66.72.2v0l-.22.17a4.15,4.15,0,0,0,.78-.32,6.14,6.14,0,0,1,.61-.25c.09,0,.55-.18.26-.1a.38.38,0,0,0-.2-.72Z" transform="translate(-6.6 -6.02)"/><path d="M191.93,112.63c-.27-8.7,1.66-11.58,1.29-21.42a46.46,46.46,0,0,0-.77-8.09c-1-4.88-.36-13.72,6.75-31.15-10.31-5.36-15.1-8.53-17.53-10.5,0,0-2.08-1.68-2.51-1.25s1,1.81,1.57,5.42h0c.61,5.15.66,6.42.66,6.42,0,.87.1,3.79-1.81,9.45-2.47,7.33-4.58,13.62-7.63,13.75-3.67.15-7-8.7-10-16.73-1.51-4-1.83-5.54-1.91-6.83-.43-6.58,3.24-11.06,2-12-1-.82-4.31,1.74-6.08,3a76.64,76.64,0,0,1-19.26,10.17c3.08,12.33,5.5,20.75,7.44,25.44,0,0,1.12,2.71,1.53,9.61.05.89.13,2.84-.94,3.51-.53.33-.89.06-1.29.25-1.68.81.67,7.82,1.74,16.89a56.83,56.83,0,0,1,.45,7.44,72.39,72.39,0,0,1-.68,7.89,72.36,72.36,0,0,0,.67,18c.46,3.1,1,5.59,1.43,7.19l3.78-.2q21-1.14,41.68-2.66c.12-.79.28-1.94.44-3.32a102.11,102.11,0,0,0,.51-17.9C193,117.13,192.11,118.64,191.93,112.63Z" transform="translate(-6.6 -6.02)"/><path d="M200.93,54.62c-.58-.75-3.11-3.89-6.9-3.82-4.16.07-6.7,3.95-7.15,4.66a517.36,517.36,0,0,1,8.24,66.73q.51,8.83.71,17.36c.75.39,5.87,2.95,10,.54a7.39,7.39,0,0,0,1.76-1.44,121.21,121.21,0,0,0,2.15-18.15c.25-5.94.18-14.6-4.34-41.54C204.37,72.86,202.9,64.54,200.93,54.62Z" transform="translate(-6.6 -6.02)"/><path d="M141.71,91.21c-.11-.59-.19-1.12-.27-1.61,0,.05-.07.09-.1.09-.3,0-.37-3.07-.3-3.07s.11,1.11.39,3c.73-1.14,2.67-14.67,5.31-35.54a15.47,15.47,0,0,0-6.89-1.38,15.28,15.28,0,0,0-5.71,1.25c-3.63,14.44-5.59,21.46-6.61,24.4a25.41,25.41,0,0,0-1.14,4.49,25.07,25.07,0,0,0-.24,5.74h0l-.51,6.73,17.2,3Z" transform="translate(-6.6 -6.02)"/><polygon points="133.52 80.53 133.52 80.53 133.52 80.53 133.52 80.53"/><line class="cls-1" x1="187.82" y1="99.58" x2="204.17" y2="98.62"/><path d="M197,251.88c-.91.14-5.12.75-8.05-.64-2-.92-3-1.43-3.56-2.19a2.14,2.14,0,0,0-1.25-1,3,3,0,0,0-.56,0c-.53,0-.86.16-2,.16A6.49,6.49,0,0,1,179,248a4.18,4.18,0,0,1-1.9-2.1,5.21,5.21,0,0,1-.49-1.75,8.77,8.77,0,0,1,0-3,8.59,8.59,0,0,1,.28-1.15,6.21,6.21,0,0,0,.08-2,4.3,4.3,0,0,0-.18-.73c-.77-2.42-.91-9.35-.91-9.35-.05-2.42-.08-3.63-.06-4.87.13-9.89-1.2-17.91-1.33-33.66-.06-6.57.16-6.88,0-11.85a169.42,169.42,0,0,0-1.63-17.57c-.4-2.76-.79-4.92-1-5.9-.78-4.28-1.63-7.91-2.33-10.68h21.85c-.1,3.66-.22,9.42-.2,16.48.08,29.2,2.4,33.14.88,48.33-1.65,16.48-2.47,24.72-2.81,25.59a5.79,5.79,0,0,0-.44,3.88c1.24,4,7.88,3.58,9.52,7.45C198.92,246.3,199.09,248.37,197,251.88Z" transform="translate(-6.6 -6.02)"/><rect class="cls-2" x="152.16" y="83.63" width="11.6" height="14.82" rx="1.13" ry="1.13"/><path class="cls-2" d="M156.19,100a3.74,3.74,0,0,1-.92-4.09c1-2.43,4.67-2.78,4.61-3.21s-4.38-1-6.27,1.74a6.26,6.26,0,0,0-.56,5,4.29,4.29,0,0,0,1.61,2.73c2.58,1.59,6.86-2,6.73-2.45S158,101.46,156.19,100Z" transform="translate(-6.6 -6.02)"/><path d="M152,91.85l-4.74,13.48L126,95.94a1.57,1.57,0,0,1-.46-.27c-1.16-1-.53-3.71.2-8,.65-3.87,1-7,1.31-7s-.22,2.85,1,3.68a2.23,2.23,0,0,0,2.13-.14Z" transform="translate(-6.6 -6.02)"/><path d="M147.68,254.54a9,9,0,0,0,5.86,1.5c5.73-.79,9.89-8.8,9.37-9.27-.27-.25-2.28,1.17-3.22,3.12a3.1,3.1,0,0,0-.45,1.68,22.85,22.85,0,0,1,2.34-3.39,10.56,10.56,0,0,0,1.32-1.42,15.91,15.91,0,0,1,1.14-1.7c.54-.61.63-.46,1-.95a5.89,5.89,0,0,0,1.18-3L166,240a6.21,6.21,0,0,1-.08-2,4.3,4.3,0,0,1,.18-.73c.77-2.42.91-9.35.91-9.35,0-5.43.09-2.68.06-4.87-.22-13.85-.57-22.66-.4-32.18.17-9.15.25-13.73,1.28-19.29.33-1.78,1.13-5.65,2.11-11.62.45-2.73.58-3.79,1-5.9.78-4.28,1.63-7.91,2.33-10.68H151.48l.2,16.48h0a295.09,295.09,0,0,0-1.41,34.72c.18,7,.79,31.12,3.33,39.2a8.48,8.48,0,0,1,.44,3.88c-.5,3.61-3.35,4.85-5.13,8.13C147.94,247.49,147.07,250.26,147.68,254.54Z" transform="translate(-6.6 -6.02)"/><path d="M140.13,88.56a1.5,1.5,0,0,0,0-3,1.5,1.5,0,0,0,0,3Z" transform="translate(-6.6 -6.02)"/><path d="M197.73,53c.21.23.42.56.78.44a.43.43,0,0,0,.26-.23.55.55,0,0,0,.06-.19c0-.27,0,0-.1,0,.41.25.79-.4.38-.65a.67.67,0,0,0-.79-.05c-.26.19-.16.42-.24.68l.17-.22-.06,0,.29,0s-.21-.27-.21-.26c-.33-.35-.86.18-.53.53Z" transform="translate(-6.6 -6.02)"/><path d="M198.47,52.59c.52.16.68.71,1,1.07s.67.54.77.9a.38.38,0,0,0,.72-.2c-.15-.56-.65-.87-1-1.28a10.14,10.14,0,0,0-.61-.82,2,2,0,0,0-.72-.39c-.46-.14-.66.58-.2.72Z" transform="translate(-6.6 -6.02)"/><path d="M198.22,52.4a3.07,3.07,0,0,1,.67.28,3.72,3.72,0,0,1,.83.82,4,4,0,0,1,.73,2.33.38.38,0,0,0,.75,0,4.74,4.74,0,0,0-.79-2.66,6.23,6.23,0,0,0-1-1,1.44,1.44,0,0,0-.44-.36c-.12,0-.29,0-.38,0-.44-.19-.82.46-.38.65Z" transform="translate(-6.6 -6.02)"/><path d="M200.08,56c.07.82.53,1.5.55,2.34a.38.38,0,0,0,.75,0c0-1,.2-2.29-.32-3.21a.38.38,0,0,0-.65.38c.44.77.22,2,.22,2.83h.75a3.88,3.88,0,0,0-.16-1.15,5.71,5.71,0,0,1-.39-1.19c0-.48-.79-.48-.75,0Z" transform="translate(-6.6 -6.02)"/><path d="M197.3,154.12a57.87,57.87,0,0,1,.94-10.91c.18-.94-1.26-1.35-1.45-.4a59.42,59.42,0,0,0-1,11.31.75.75,0,0,0,1.5,0Z" transform="translate(-6.6 -6.02)"/><path d="M201.3,139.55a22.38,22.38,0,0,0,.07,3.72c.34,2,1.63,3.54,1.65,5.67.05,4-2.92,8-6,10.25-.77.57,0,1.87.76,1.3a17.61,17.61,0,0,0,6.18-8.11c1.43-4.48-1.17-8.35-1.17-12.82a.75.75,0,0,0-1.5,0Z" transform="translate(-6.6 -6.02)"/><path d="M197.09,159.89c.84-1.27,1.46-2.65,2.36-3.9a12.58,12.58,0,0,0,1.84-3.1c1-2.69-.72-4.08-1.32-6.52-.23-.94-1.68-.54-1.45.4.61,2.5,2.3,4.17.72,6.89-1.05,1.82-2.29,3.72-3.45,5.48-.53.81.76,1.56,1.3.76Z" transform="translate(-6.6 -6.02)"/><path d="M196.12,158.32c2.44,0,4.19-3.43,4.93-5.38a7.9,7.9,0,0,0,0-4.78,60.69,60.69,0,0,1-1-6.67c-.12-.95-1.62-1-1.5,0,.28,2.28.51,4.52,1,6.76a7.15,7.15,0,0,1-.49,5.23c-.44.89-1.91,3.33-2.88,3.34a.75.75,0,0,0,0,1.5Z" transform="translate(-6.6 -6.02)"/><path d="M198.5,141.39c.1,2,.37,4,.67,6a12.68,12.68,0,0,0,1,4.17.75.75,0,0,0,1.3-.76,12.06,12.06,0,0,1-.9-3.81c-.25-1.83-.53-3.79-.62-5.63,0-1-1.55-1-1.5,0Z" transform="translate(-6.6 -6.02)"/><path d="M202.37,147.21a62,62,0,0,0-.86-7.66c-.11-.95-1.61-1-1.5,0a62.32,62.32,0,0,1,.86,7.66.75.75,0,0,0,1.5,0Z" transform="translate(-6.6 -6.02)"/><path d="M198.71,138.85a3.37,3.37,0,0,0-.21,1.94c0,.45-.45,2.21-1.07,2.35-.94.22-.54,1.66.4,1.45s1.34-1.22,1.71-2a3.46,3.46,0,0,0,.46-1.51c0-.35-.19-1.2,0-1.51.52-.82-.78-1.57-1.3-.76Z" transform="translate(-6.6 -6.02)"/><path d="M196.82,143c.18.66.82,1,1.08,1.66s.5,1.48.73,2.21c.29.92,1.74.53,1.45-.4-.23-.74-.49-1.47-.73-2.21a2.93,2.93,0,0,0-.44-.83c-.17-.24-.56-.54-.64-.83a.75.75,0,0,0-1.45.4Z" transform="translate(-6.6 -6.02)"/><path d="M198.11,142.4a2.74,2.74,0,0,1,.27-.89,3.24,3.24,0,0,1,.18-.61c.27-.4-.38-.77-.65-.38a4.53,4.53,0,0,0-.28.84,2.9,2.9,0,0,0-.27,1c0,.48.73.48.75,0Z" transform="translate(-6.6 -6.02)"/><path d="M198.36,142.46a9.11,9.11,0,0,1,.06-.94c0-.48-.72-.48-.75,0a8.91,8.91,0,0,0-.06.94c0,.48.77.48.75,0Z" transform="translate(-6.6 -6.02)"/><path d="M197.54,142.27a3.6,3.6,0,0,1,.37-.88,1.94,1.94,0,0,0,.26-.74c0-.48-.73-.48-.75,0a3.09,3.09,0,0,1-.33.78,2.54,2.54,0,0,0-.3.84c0,.48.72.48.75,0Z" transform="translate(-6.6 -6.02)"/><path d="M201.66,147.45a6.94,6.94,0,0,0-.17-2.11c-.27-.94-.86-1.55-.89-2.61a.38.38,0,0,0-.75,0,12.76,12.76,0,0,0,1,5,.38.38,0,0,0,.7-.19A19.24,19.24,0,0,0,201,145a18.46,18.46,0,0,1-.33-3.8.38.38,0,0,0-.75,0,20.14,20.14,0,0,0,.19,3.06c.17,1.1.66,2.17.74,3.27l.7-.19a12.13,12.13,0,0,1-.94-4.61h-.75a4.22,4.22,0,0,0,.49,2,5,5,0,0,1,.57,2.77.38.38,0,0,0,.75,0Z" transform="translate(-6.6 -6.02)"/><path d="M200.79,146.52v4.92a.38.38,0,0,0,.75,0c0-1.61-.16-3.25-.05-4.85l-.74.1c.55,1.54,1.19,3,1.76,4.58.14.37.77.35.74-.1-.1-1.42,0-3.37-.83-4.61a.38.38,0,0,0-.7.19c-.06.61.43,1.23.63,1.77a2.77,2.77,0,0,1-.94,3.44l.56.32c-.17-1.68-.05-3.43-.06-5.12l-.74.1c0,.23.42,3.55,1.08,3.43,0,0,.32-4.36.34-4.48h-.72c1.23,3.06-.8,6.25-2.27,8.89a.38.38,0,0,0,.59.45,10.14,10.14,0,0,0,2.46-3.71l-.72-.2c-.58,2.28-2,3.56-3.59,5.09-.35.33.18.86.53.53,1.72-1.64,3.18-3,3.79-5.42a.38.38,0,0,0-.72-.2,9.22,9.22,0,0,1-2.27,3.38l.59.45c1.59-2.85,3.7-6.12,2.35-9.47-.12-.3-.65-.41-.72,0-.31,1.69-.85,3.95-.12,5.57a.38.38,0,0,0,.42.17c1.44-.33-.18-4-.29-4.7-.07-.42-.74-.31-.74.1,0,1.69-.1,3.44.06,5.12a.38.38,0,0,0,.56.32,4.36,4.36,0,0,0,1.69-2.07c.35-1.37-1.13-2.59-1-3.8l-.7.19c.6.94.64,3.06.73,4.23l.74-.1c-.57-1.53-1.22-3-1.76-4.58a.38.38,0,0,0-.74.1c-.11,1.6.06,3.24.05,4.85h.75v-4.92a.38.38,0,0,0-.75,0Z" transform="translate(-6.6 -6.02)"/><path d="M197.67,158.69c.87,0,1.69-1.44,2.1-2.07a2.54,2.54,0,0,0,.45-.78l.06-.12-.23-.11s0,.2,0,.23a3,3,0,0,1-1.21,1.32l.56.32v-.09c0-.48-.8-.48-.75,0v.09a.38.38,0,0,0,.56.32,3.24,3.24,0,0,0,1.47-1.56c.16-.37.3-1-.1-1.26-.58-.38-.92.39-1.13.78a10.76,10.76,0,0,1-.93,1.36c-.15.19-.56.83-.81.82a.38.38,0,0,0,0,.75Z" transform="translate(-6.6 -6.02)"/><path d="M197.36,145a10.37,10.37,0,0,0,.89,3.25,11.67,11.67,0,0,0,1.29,3.14.38.38,0,0,0,.69-.09c.16-.45-.17-.83-.35-1.23a10.66,10.66,0,0,1-.67-2.3c-.15-.7-.28-3.1-1.37-3.09a.38.38,0,0,0-.36.28,6.59,6.59,0,0,0,0,1.58,4.45,4.45,0,0,1-.65,2.19l.64.27a3.11,3.11,0,0,1,.62-1.61.38.38,0,0,0-.65-.38,3.8,3.8,0,0,0-.73,2,.38.38,0,0,0,.64.27,4.05,4.05,0,0,0,.66-1.65c.25-.82-.08-1.68.14-2.45l-.36.28c-.26,0,0,0,0,.23a10.13,10.13,0,0,0,.4,1.19c.13.6.21,1.21.36,1.81A10.9,10.9,0,0,0,199,150c.1.24.58.85.49,1.09l.69-.09a10.7,10.7,0,0,1-1.21-3,10.11,10.11,0,0,1-.86-3,.38.38,0,0,0-.75,0Z" transform="translate(-6.6 -6.02)"/><path d="M199.79,152.69c0-.82.21-2.12-.55-2.68a.38.38,0,0,0-.56.32c.06.68.4,1.24.42,1.94s-.13,1.85-.75,2.25l.55.22a7.21,7.21,0,0,1,.45-1.4,12.66,12.66,0,0,0,.32-2.17c.06-1.29-.52-1.79-.88-3-.14-.46-.87-.26-.72.2a14.39,14.39,0,0,0,.66,1.34,4.19,4.19,0,0,1,.14,2.06,9.38,9.38,0,0,1-.54,2.29,1.43,1.43,0,0,0-.14.84.38.38,0,0,0,.55.22,3,3,0,0,0,1-1.74c.28-1.15-.24-2-.34-3.1l-.56.32c.38.28.18,1.68.18,2a.38.38,0,0,0,.75,0Z" transform="translate(-6.6 -6.02)"/><path d="M199.42,150.76A6.86,6.86,0,0,0,199,149c-.1-.29-.17-.58-.25-.87a5.54,5.54,0,0,1-.3-.84c0-.48-.79-.48-.75,0a8.1,8.1,0,0,0,.44,1.48,10.54,10.54,0,0,1,.56,2c0,.48.79.48.75,0Z" transform="translate(-6.6 -6.02)"/><path d="M198.48,150.95a7.37,7.37,0,0,1-.73,4.13,6.26,6.26,0,0,1-2,2c-.4.27,0,.92.38.65a6.87,6.87,0,0,0,2.23-2.25c.88-1.45.83-2.85.83-4.5a.38.38,0,0,0-.75,0Z" transform="translate(-6.6 -6.02)"/><path d="M199.11,150.88a3.48,3.48,0,0,0-.13-1.4c-.18-.44-.31-.89-.5-1.32s-.83-.06-.65.38.23.76.41,1.13a2.7,2.7,0,0,1,.12,1.21.38.38,0,0,0,.75,0Z" transform="translate(-6.6 -6.02)"/><path d="M195.5,149a17,17,0,0,1-.07,2.36,12.16,12.16,0,0,0-.2,2.15c0,.94.5,1.86,1.56,1.27.42-.24,0-.88-.38-.65-.63.35-.29-2.37-.27-2.51a17.81,17.81,0,0,0,.1-2.62.38.38,0,0,0-.75,0Z" transform="translate(-6.6 -6.02)"/><path d="M196.15,149.15c0-1.27.75-2.49,1.09-3.68a.38.38,0,0,0-.72-.2c-.37,1.27-1.1,2.52-1.11,3.88a.38.38,0,0,0,.75,0Z" transform="translate(-6.6 -6.02)"/><path d="M195.35,149.15a3.74,3.74,0,0,0,0,1,5.92,5.92,0,0,1,.16,1.24.38.38,0,0,0,.75,0,5.57,5.57,0,0,0-.11-1.15,3.78,3.78,0,0,1,0-1.1c0-.48-.73-.48-.75,0Z" transform="translate(-6.6 -6.02)"/><path d="M202.65,141.18c-.05,2.08,1.32,3.72,1.37,5.82h.75c-.28-2.26-1.57-4.29-1.73-6.6,0-.48-.78-.48-.75,0a12.63,12.63,0,0,0,.67,3.06A20.44,20.44,0,0,1,204,147c.06.46.76.5.75,0a9.19,9.19,0,0,0-.43-2.56c-.38-1.15-1-2-.94-3.26a.38.38,0,0,0-.75,0Z" transform="translate(-6.6 -6.02)"/><path d="M203.73,147.2a4.21,4.21,0,0,0,.31,2.18.38.38,0,0,0,.69-.09,5.18,5.18,0,0,0-.06-2.57c-.11-.32-.65-.39-.72,0a6.65,6.65,0,0,0,.5,2.63c.21.89-.58,2.46-1.13,3.21-.29.39.36.76.65.38a11.51,11.51,0,0,0,.7-1.43,3.56,3.56,0,0,0,.59-1.26c.17-1.14-.79-2.22-.59-3.32h-.72a4.94,4.94,0,0,1,.06,2.17l.69-.09a3.52,3.52,0,0,1-.2-1.8.38.38,0,0,0-.75,0Z" transform="translate(-6.6 -6.02)"/><path d="M204.77,150.71a13.93,13.93,0,0,0-.12-1.54.38.38,0,0,0-.75,0,8.76,8.76,0,0,1-.28,3.09,7.32,7.32,0,0,1-1.22,2c-.3.37.23.91.53.53a8.4,8.4,0,0,0,1.3-2,9,9,0,0,0,.42-3.63h-.75a14.22,14.22,0,0,1,.12,1.54.38.38,0,0,0,.75,0Z" transform="translate(-6.6 -6.02)"/><path d="M205.19,149.1a18.05,18.05,0,0,0-.64-3.51,29.17,29.17,0,0,0-1.1-4.81c-.17-.45-.9-.25-.72.2a26.33,26.33,0,0,1,1,4.25,19.92,19.92,0,0,1,.73,3.87.38.38,0,0,0,.75,0Z" transform="translate(-6.6 -6.02)"/><path d="M203,154.63a9.37,9.37,0,0,1,1-2.27,8.76,8.76,0,0,1,.66-1.41l-.55-.22c.17.8-.69,2.06-1,2.74a6.84,6.84,0,0,1-1,1.47,5,5,0,0,1-.74.93c-.4.27,0,.92.38.65a7.52,7.52,0,0,0,2-2.64c.47-.89,1.33-2.31,1.1-3.35a.38.38,0,0,0-.55-.22c-.45.3-.61,1.08-.85,1.53a9.84,9.84,0,0,0-1.18,2.6c-.09.47.63.67.72.2Z" transform="translate(-6.6 -6.02)"/><path d="M196.11,149.21a.76.76,0,0,1,0-.29c.15-.46-.57-.66-.72-.2a1.46,1.46,0,0,0-.07.48.38.38,0,0,0,.75,0Z" transform="translate(-6.6 -6.02)"/><path d="M199.21,151.06c-.09-.05-.22-.22-.13-.05s0-.22,0-.09c0-.48-.78-.48-.75,0a.94.94,0,0,0,.47.79c.41.26.79-.39.38-.65Z" transform="translate(-6.6 -6.02)"/><path d="M150.72,96.31a.38.38,0,0,0,0-.75.38.38,0,0,0,0,.75Z" transform="translate(-6.6 -6.02)"/><path class="cls-3" d="M171.3,39.49h-1.88c-2.57.71-5.1.55-6.35-.61a7.55,7.55,0,0,1-2-3.72A130,130,0,0,1,158,17.51a6.29,6.29,0,0,1,1-4.34A7.27,7.27,0,0,1,161.86,11a9.65,9.65,0,0,1,2.76-.84A9.58,9.58,0,0,1,166.84,9,10.35,10.35,0,0,1,171,8.37a8,8,0,0,1,8.48,1.09,6.27,6.27,0,0,1,1.8,6.89c-1.18,2.35-1.12,3.69-.83,4.49a3.78,3.78,0,0,1,.37,1.28c0,.48-.07.8-.19,2.29v.07a43.8,43.8,0,0,1-.89,5.65,23.76,23.76,0,0,1-1,3.51,18.66,18.66,0,0,1-.93,2.08C176.38,38.22,172.77,39.18,171.3,39.49Z" transform="translate(-6.6 -6.02)"/><path class="cls-3" d="M171.16,48.6c-.27-.33-.65-.77-1.11-1.29-1.25-1.43-2.25-2.46-2.81-3-1.93-2-3.77-3.73-4.93-4.79l9-8.34,7.78,8.76A62.31,62.31,0,0,1,174.27,46a13.24,13.24,0,0,0-1.34,1.43c-.25.3-.51.63-.5.64s2.12-2.81,2.32-2.68-2.48,3.19-2.77,3.28l-.16,0a1.17,1.17,0,0,1-.3,0A1.33,1.33,0,0,1,171.16,48.6Z" transform="translate(-6.6 -6.02)"/><path class="cls-3" d="M142.4,9.69" transform="translate(-6.6 -6.02)"/><path d="M165.4,11.31C166,9.18,170.2,9.1,171.84,9c2.34-.1,6,.66,6.44,3.45.32,1.9,3.21,1.09,2.89-.8-.71-4.22-5.58-5.77-9.33-5.66-3.35.1-8.29.67-9.34,4.49a1.5,1.5,0,0,0,2.89.8Z" transform="translate(-6.6 -6.02)"/><path d="M158.69,20.75c-2.18,0-2.22,2.05-2,3.74a21.59,21.59,0,0,0,.82,3.12,4.22,4.22,0,0,0,1.46,2.48c1.44,1.27,3.57-.84,2.12-2.12A4.74,4.74,0,0,1,160,25.49a6.92,6.92,0,0,1-.36-1.48q0-.39,0-.78.12-1.18-.92.53a1.5,1.5,0,0,0,0-3Z" transform="translate(-6.6 -6.02)"/><path d="M180.55,23.06a1.55,1.55,0,0,1,.49,0l-.9-.69c.16.33-.43,1.87-.52,2.29-.16.79-.36,1.56-.53,2.35-.42,1.88,2.47,2.68,2.89.8.49-2.22,2.8-8.11-1.45-7.71-1.9.18-1.92,3.18,0,3Z" transform="translate(-6.6 -6.02)"/><path d="M167.63,52a40.3,40.3,0,0,1,7,.67l-.9-2.2A53.85,53.85,0,0,1,170.31,56l2.36-.3c-1.54-1.3-2.08-3-2.95-4.72l-2.59,1.51c2.62,3.88.81,5.91-.28,9.62-.78,2.65-.56,5.68-.56,8.4,0,1.63,2.67,2.11,2.95.4.33-2,1.34-3.67,1.79-5.64.18-.78-.18-3.69.52-4.16l-1.82-.23c1.19,1.18-1,6.46-1.25,8.14l2.95.4c.16-1.5.59-7.54,1.51-8.9l-2.05.54c1.84,1,2.79,12.44,2.24,14-.63,1.83,2.27,2.62,2.89.8,1-2.9-.25-6.95-.75-9.87-.46-2.65-.24-6.08-2.87-7.56a1.54,1.54,0,0,0-2.05.54c-.78,1.14-.63,2.44-.8,3.76-.29,2.23-.88,4.4-1.12,6.65-.18,1.66,2.69,2.07,2.95.4.46-3.09,3.2-8.37.47-11.06a1.52,1.52,0,0,0-1.82-.23,3.55,3.55,0,0,0-1.65,2.59c-.66,2.9-1.56,6.07-2,9l2.95.4c0-4.26.9-7.46,2-11.44.9-3.3.29-5.36-1.56-8.09a1.5,1.5,0,0,0-2.59,1.51c1,2,1.66,3.84,3.42,5.32a1.53,1.53,0,0,0,2.36-.3A50,50,0,0,0,176.37,52a1.52,1.52,0,0,0-.9-2.2,42.34,42.34,0,0,0-7.84-.78,1.5,1.5,0,0,0,0,3Z" transform="translate(-6.6 -6.02)"/><path d="M169.08,52.1a2.72,2.72,0,0,0,.09.87l.21.5q.11.23,0,0a3.14,3.14,0,0,0,.49.86,1.69,1.69,0,0,0,2,.3,1.69,1.69,0,0,0,.35-.28q.41-.54.11-.13c.24-.44.58-.68.85-1.12a1.5,1.5,0,1,0-2.59-1.51c-.07.12-.06.14,0,0a3.81,3.81,0,0,1-.4.52c-.19.22.09-.12,0,0s-.55.57-.12.14l1.06-.44H171l1.06.44q.32.66.17.29a2.19,2.19,0,0,0-.18-.41c-.24-.43,0,.48,0,0a1.5,1.5,0,0,0-3,0Z" transform="translate(-6.6 -6.02)"/><path d="M167.19,48.85a1.53,1.53,0,0,0-1.19.33.38.38,0,0,0,.27.64,3.09,3.09,0,0,0,1.67-.42.38.38,0,0,0-.19-.7c-.43,0-1.12-.12-1.45.18s-.23.82-.37,1.24l.69-.09c-.35-.46.5-.65.84-.61l.8.13a5,5,0,0,1,1.15.27c.43.2.82-.44.38-.65a5,5,0,0,0-1.22-.32,7.7,7.7,0,0,0-1.76-.25A1.15,1.15,0,0,0,166,50.4a.38.38,0,0,0,.69-.09c.07-.22-.06-.59.1-.77s.76-.12,1-.09l-.19-.7a2.43,2.43,0,0,1-1.29.32l.27.64c.13-.15.5-.11.66-.11a.38.38,0,0,0,0-.75Z" transform="translate(-6.6 -6.02)"/><path d="M167.64,51.94c-.23-.46-.41-.91-.67-1.36-.14-.24-.21-.51-.55-.49a.39.39,0,0,0-.37.38,2.38,2.38,0,0,0,.63,1.42A9.36,9.36,0,0,1,167.3,53a7.16,7.16,0,0,1,.61,1.12c.16.45.88.26.72-.2a13.65,13.65,0,0,0-1-1.91c-.23-.42-.91-1-.86-1.53l-.37.38c-.31,0,0,.29.16.5s.26.65.42,1,.86.05.65-.38Z" transform="translate(-6.6 -6.02)"/><path d="M171.94,58.94c0-.4-.35-.93-.26-1.33l-.69.09c.29.57.5,1.19.83,1.75a.38.38,0,0,0,.65-.38c-.32-.54-.54-1.18-.83-1.75a.38.38,0,0,0-.69.09c-.11.53.2,1,.24,1.53s.79.48.75,0Z" transform="translate(-6.6 -6.02)"/><path d="M171.42,65.74c.46,1,.05,2.85.11,3.88.07,1.25.09,2.52.28,3.76.06.43.74.31.74-.1,0-2.29.57-5.4-.1-7.6a.38.38,0,0,0-.74.1,9.52,9.52,0,0,0,.69,2.77,15.45,15.45,0,0,1,.54,4l.74-.1a42,42,0,0,1-.93-8,.38.38,0,0,0-.75,0c.06,3.51,1.21,7.17.84,10.67l.74-.1c-.7-1.68-.73-3.48-1.16-5.21a.38.38,0,0,0-.74.1,34.15,34.15,0,0,0,.88,7.06c.1.4.79.33.74-.1-.28-2.36-.2-5.38-1-7.62a.38.38,0,0,0-.72,0,7.85,7.85,0,0,0,.32,4.2.38.38,0,0,0,.72,0,3.69,3.69,0,0,0-.7-3.6.38.38,0,0,0-.63.17,19.16,19.16,0,0,0,.11,4.86l.74-.1a19.76,19.76,0,0,0-1.14-5c-.18-.42-.75-.1-.69.29.32,1.92.89,3.84,1.31,5.74a.38.38,0,0,0,.74-.1,18.3,18.3,0,0,0-.9-5.19.38.38,0,0,0-.72.2,26.54,26.54,0,0,0,1,3.24c.13.38.78.34.74-.1-.15-1.69-.56-3.33-.83-5l-.72.2c.28,1.23.61,2.47.82,3.71l.69-.29a6.13,6.13,0,0,0-1.15-1.8.38.38,0,0,0-.64.27c0,1,.19,1.91.22,2.89l.74-.1c-.31-1.44-.63-2.87-1.06-4.29-.12-.39-.76-.34-.74.1.07,1.53.43,3.06.59,4.58l.74-.1a14,14,0,0,0-1.36-3.36c-.2-.27-.72-.22-.7.19a9.53,9.53,0,0,0,.49,2.77.38.38,0,0,0,.72-.2,15.42,15.42,0,0,0-.85-3.64c-.16-.37-.69-.15-.7.19,0,1,.09,1.86.11,2.81l.74-.1c-.41-1.35-.66-2.73-1-4.09-.11-.4-.76-.33-.74.1.08,1.27.31,2.5.44,3.77l.74-.1-.15-.66c-.08-.34-.66-.37-.72,0-.1.65,0,1.28-.1,1.93l.74-.1a5.47,5.47,0,0,1-.48-1.5l-.63.36c1.48,1.52,2.92,3.24,4.53,4.61a.38.38,0,0,0,.53-.53c-1.26-1.39-2.64-2.66-3.93-4l-.53.53c1.46,1.15,2.76,2.48,4.24,3.59.27.2.63-.13.55-.42-.3-1.06-1-3.31-2.06-3.85a.38.38,0,0,0-.55.42A7,7,0,0,0,171,74.6c.18.38.84.11.69-.29a8.53,8.53,0,0,0-.46-1c-.19-.36-.67-.15-.7.19a4,4,0,0,0,.61,2c.23.43.87,0,.65-.38a4.21,4.21,0,0,1-.5-1.66l-.7.19.39.85.69-.29a4.55,4.55,0,0,1-.53-1.74l-.55.42c.74.38,1.55,2.81,1.72,3.4l.55-.42c-1.42-1.07-2.69-2.37-4.09-3.47-.37-.29-.87.17-.53.53,1.29,1.37,2.67,2.64,3.93,4l.53-.53c-1.61-1.37-3-3.09-4.53-4.61a.38.38,0,0,0-.63.36,5.47,5.47,0,0,0,.48,1.5.38.38,0,0,0,.74-.1c.05-.59,0-1.13.07-1.73h-.72l.15.66c.09.4.78.33.74-.1-.13-1.26-.36-2.5-.44-3.77l-.74.1c.38,1.36.63,2.74,1,4.09a.38.38,0,0,0,.74-.1c0-.94-.15-1.86-.11-2.81l-.7.19a15.12,15.12,0,0,1,.77,3.46l.72-.2a9.06,9.06,0,0,1-.46-2.57l-.7.19a13.53,13.53,0,0,1,1.29,3.18c.14.36.79.36.74-.1-.17-1.52-.52-3.05-.59-4.58l-.74.1c.43,1.41.75,2.84,1.06,4.29a.38.38,0,0,0,.74-.1c0-1-.24-1.91-.22-2.89l-.64.27a6.13,6.13,0,0,1,1,1.65c.21.4.75.11.69-.29-.21-1.24-.54-2.48-.82-3.71-.11-.48-.8-.27-.72.2.26,1.61.66,3.18.8,4.8l.74-.1a26.44,26.44,0,0,1-1-3.24l-.72.2a17.76,17.76,0,0,1,.87,5l.74-.1c-.42-1.9-1-3.83-1.31-5.74l-.69.29a19.54,19.54,0,0,1,1.06,4.8c.06.42.77.32.74-.1a18.85,18.85,0,0,1-.13-4.66l-.63.17a3,3,0,0,1,.5,2.87h.72a7.07,7.07,0,0,1-.32-3.8h-.72c.81,2.24.7,5.07,1,7.42l.74-.1a32.7,32.7,0,0,1-.85-6.86l-.74.1c.43,1.75.45,3.52,1.16,5.21a.38.38,0,0,0,.74-.1c.38-3.5-.78-7.17-.84-10.67H172a42.89,42.89,0,0,0,1,8.24.38.38,0,0,0,.74-.1,15.38,15.38,0,0,0-.23-2.83c-.21-1.23-1.08-2.67-1-3.92l-.74.1c.64,2.12.08,5.2.07,7.4l.74-.1a36.42,36.42,0,0,1-.3-5.27,6,6,0,0,0-.16-2.55c-.21-.44-.85-.06-.65.38Z" transform="translate(-6.6 -6.02)"/><path d="M164.37,82a.38.38,0,0,0,0-.75.38.38,0,0,0,0,.75Z" transform="translate(-6.6 -6.02)"/><path d="M173.1,59.91a7.91,7.91,0,0,0-.44-1.64c0-.1-.31-1.32-.13-1.47l-.63-.17a25.47,25.47,0,0,0,1.2,3.54c.16.45.89.26.72-.2a25.48,25.48,0,0,1-1.2-3.54.38.38,0,0,0-.63-.17c-.34.28-.23.83-.21,1.21.05.85.51,1.59.56,2.43,0,.48.78.48.75,0Z" transform="translate(-6.6 -6.02)"/><path d="M175.46,50.36c.54.09,1.17.61.75,1.19-.31.42-.84.63-1.2,1s.2.88.53.53c.5-.54,1.7-1,1.57-1.91a1.66,1.66,0,0,0-1.45-1.55c-.47-.08-.68.65-.2.72Z" transform="translate(-6.6 -6.02)"/><path d="M175.67,49.57c-.76,0-1.5-.06-2.26-.06a.38.38,0,0,0,0,.75c.76,0,1.5.07,2.26.06a.38.38,0,0,0,0-.75Z" transform="translate(-6.6 -6.02)"/><path d="M152.51,96.47a5,5,0,0,1,1.16,0s-.44-.22-.07,0c.21.14,0,.06,0-.05l-.2-.76v.14l.2-.76q.54-.43.27-.28l-.16.08-.3.17c-.05,0-.27.21-.13.09l-.15,0q.22,0-.06,0a1.5,1.5,0,0,0,0,3,4.34,4.34,0,0,0,2.05-.67,2,2,0,0,0,1.26-1.83,2.39,2.39,0,0,0-1.51-1.91,5.22,5.22,0,0,0-2.35-.29,1.5,1.5,0,0,0,0,3Z" transform="translate(-6.6 -6.02)"/><path d="M152,100.57a10.86,10.86,0,0,0,1.56-.12l.39-.07h.09a.81.81,0,0,1-.69-.45q-.11-.2,0,.07l0-.09a.38.38,0,0,1,.06-.18l-.19.25.2-.22-.26.13c.26-.12-.46.2-.54.27a1.55,1.55,0,0,0-.54,2.05,1.51,1.51,0,0,0,2.05.54q.21-.15,0-.05l.36-.15a4,4,0,0,0,.4-.19,3.23,3.23,0,0,0,1-1,2.86,2.86,0,0,0,.29-2.48,2.18,2.18,0,0,0-2.1-1.52c-.71,0-1.32.18-2,.18a1.5,1.5,0,0,0,0,3Z" transform="translate(-6.6 -6.02)"/><path d="M155.35,94.34c.18-.34-.06.21.1-.17l.09-.1.06,0-.76.2H155a1.53,1.53,0,0,0,1.5-1.5,1.52,1.52,0,0,0-1.5-1.5,2.82,2.82,0,0,0-2.22,1.59,1.53,1.53,0,0,0,.54,2.05,1.52,1.52,0,0,0,2.05-.54Z" transform="translate(-6.6 -6.02)"/></svg>