<svg id="Layer_1" data-name="Layer 1" xmlns="http://www.w3.org/2000/svg" viewBox="0 0 213.34 85.63"><defs><style>.cls-1,.cls-4{fill:#fff;}.cls-2{fill:aqua;}.cls-3{fill:#2d4aa6;}.cls-4{stroke:#fff;stroke-miterlimit:10;}.cls-5{font-size:21px;fill:#f2f2f2;font-family:Verdana-Bold, Verdana;font-weight:700;}</style></defs><title>twit</title><path class="cls-1" d="M606,107.72" transform="translate(-24.23 -25.91)"/><path class="cls-2" d="M606,107.72" transform="translate(-24.23 -25.91)"/><rect class="cls-3" width="213.34" height="85.63" rx="10" ry="10"/><path class="cls-3" d="M70.56-328.12" transform="translate(-24.23 -25.91)"/><circle class="cls-4" cx="187.68" cy="34.72" r="13.55"/><path class="cls-4" d="M224.48,56.36c-3-2.27-16.71,6.68-24,12.83A57.76,57.76,0,0,1,185,79.5a44.69,44.69,0,0,1-6.87,2.37c-10,2.58-16.8.61-16.94,1.23C161,84.28,184.37,97.91,204,89,221.43,81.15,228,59,224.48,56.36Z" transform="translate(-24.23 -25.91)"/><path class="cls-4" d="M201.77,68.22" transform="translate(-24.23 -25.91)"/><path class="cls-1" d="M221,51.49a23.21,23.21,0,0,0,3-2c.7-.55,1.25-2.14,2.21-2.32,1,1-.24,3-.8,4s-1.05,2.31-1.74,3.4a5.18,5.18,0,0,0,3.8-1,6.68,6.68,0,0,1,1.76-1.07c.38-.11.41-.21.7.14a1.83,1.83,0,0,1,.16,1.13c-.13.62-.66.86-1.06,1.32a13.46,13.46,0,0,1-1.4,1.71c-1.12.95-2,2.18-3,3.22" transform="translate(-24.23 -25.91)"/><path class="cls-1" d="M221.22,51.81a18.87,18.87,0,0,0,2.7-1.74c.5-.41.92-1.27,1.4-1.59q.31-.86.56-.05a.6.6,0,0,1,0,1,6.12,6.12,0,0,1-.8,1.59c-.61,1.12-1.1,2.29-1.74,3.4a.38.38,0,0,0,.22.55,4.88,4.88,0,0,0,2.18-.12c.88-.25,2-1.43,2.75-1.51,1.64-.17-.22,2.18-.69,2.71-1.11,1.26-2.28,2.51-3.44,3.74-.33.35.2.88.53.53.58-.62,8.16-7.68,4.66-8.25-.79-.13-1.69.86-2.29,1.22-.4.24-2.5,1.5-2.9.84a18.47,18.47,0,0,1,1-2.06c.81-1.56,2.18-3.25,1.16-5a.39.39,0,0,0-.51-.13,4.23,4.23,0,0,0-1.51,1.4,13.31,13.31,0,0,1-3.68,2.87.38.38,0,0,0,.38.65Z" transform="translate(-24.23 -25.91)"/><path class="cls-1" d="M222.86,53.93c0-1-1-1.61-1-2.59a2.89,2.89,0,0,0,.89,1.27,2.67,2.67,0,0,1,.56.63c.13.25,0,.47.12.73a3.67,3.67,0,0,0,.28-1,4.29,4.29,0,0,1,.2-.6c.13-.26.34-.48.46-.75a14.74,14.74,0,0,0,.64-1.51,5.38,5.38,0,0,1,.37-1,2.67,2.67,0,0,1,.38-.68c.51,0-.06,1.07-.14,1.24a1,1,0,0,1-.15.42,3.65,3.65,0,0,1-.4.42,7.18,7.18,0,0,0-.52.53,5.69,5.69,0,0,0-.87,1.32,8.78,8.78,0,0,1-.52,1.1,5.38,5.38,0,0,0,.23-1.08c0-.33.14-.66.12-1-.13,0-.27.19-.37.26a1.37,1.37,0,0,1-.41.16,5,5,0,0,1-.77.16c-.22,0-.59,0-.33-.27s.39-.1.54-.17a7.12,7.12,0,0,0,.75-.36,6.36,6.36,0,0,0,2-1.63,4.18,4.18,0,0,0,.3-.55c.12-.23.24-.68.43-.83a9.62,9.62,0,0,1-1.26,1.6,8.6,8.6,0,0,0-.47.91c-.12.22-.23.44-.33.67s-.36.53-.32.78c.18-.19,1-1.93,1.26-1.63s-.12.87-.27,1a4.21,4.21,0,0,1-.88,1c-.42.26-.7.3-.89-.17a.74.74,0,0,1-.07-.63,9.69,9.69,0,0,1,1.07-1.42,2.65,2.65,0,0,1,.89-1c.44.38-.45,1.31-.65,1.61-.38.56-.81,1.08-1.22,1.61a3.3,3.3,0,0,1,.76-.71c.18-.14.44-.47.67-.5.24.29,0,.55-.07.84a3,3,0,0,0-.05.85,2.72,2.72,0,0,1,.33-1.3c.15-.31.33-.88.64-1,.11.33-.14.63-.21.94a7.69,7.69,0,0,1-.47,1.24,13.59,13.59,0,0,1-.74,1.4c-.24.44-.63.76-.88,1.21" transform="translate(-24.23 -25.91)"/><path class="cls-1" d="M223.24,53.93c-.09-1-.86-1.71-1-2.69l-.72.2c.32.91,1.45,1.58,1.56,2.53,0,.32.53.57.7.19.4-.93.67-1.83,1.12-2.75.13-.27.25-.56.36-.84q.23-.64.48-1.27.44-.55-.19-.3a10.8,10.8,0,0,0-.49,1c-.2.27-.51.48-.73.73a12.46,12.46,0,0,0-1.45,2.49l.69.29a13.56,13.56,0,0,0,.37-2.17c0-.31-.34-.43-.56-.32-.42.19-1.08.73-1.59.5l.13.51c.09-.2.86-.38,1.06-.48a8.51,8.51,0,0,0,1.35-.87c.89-.7,1.07-1.52,1.71-2.37l-.65-.38c-.74,1.35-2.14,2.44-2.42,4a.38.38,0,0,0,.69.29,4.2,4.2,0,0,0,.43-.74c.06-.14.59-.79,0-.43-.16.1-1.12,1.87-.88.13a12,12,0,0,1,1.38-1.6l-.51-.13c.26.45-1.71,2.63-1.81,2.76-.3.37.22.9.53.53a4.54,4.54,0,0,1,1.35-1.15l-.55-.22c.13.35-.14,1.19-.14,1.59a.38.38,0,0,0,.75,0,3.57,3.57,0,0,1,.86-2.08l-.64-.27c.05,1.66-1.39,3.31-2.24,4.6-.27.4.38.78.65.38.92-1.39,2.4-3.2,2.35-5a.38.38,0,0,0-.64-.27A4,4,0,0,0,223.48,53h.75c0-.64.34-1.18.11-1.79a.38.38,0,0,0-.55-.22,4.94,4.94,0,0,0-1.5,1.26l.53.53c.63-.79,2.58-2.54,1.93-3.67a.38.38,0,0,0-.51-.13,8.42,8.42,0,0,0-1.82,2.07,1.3,1.3,0,0,0-.25,1.37c.49,1.2,1.59.35,2.13-.31.32-.4,1.28-1.83.27-2.06-.74-.17-1.29,1.42-1.58,1.84l.69.29c.27-1.53,1.64-2.58,2.34-3.87a.38.38,0,0,0-.65-.38,10.69,10.69,0,0,0-.57,1.11,4.63,4.63,0,0,1-1.66,1.54c-.57.36-1.6.43-1.88,1.07a.38.38,0,0,0,.13.51c.83.39,1.61-.17,2.34-.5l-.56-.32a12.28,12.28,0,0,1-.34,2,.38.38,0,0,0,.69.29A11.31,11.31,0,0,1,225,51.15,4.34,4.34,0,0,0,226,49.72c.23-.57.66-1.39-.14-1.66a.38.38,0,0,0-.42.17,28.43,28.43,0,0,0-1.32,3c-.45.87-.65,1.68-1,2.56l.7.19c-.15-1.29-1.18-1.55-1.59-2.73a.38.38,0,0,0-.72.2c.15.91.91,1.58,1,2.49,0,.48.79.48.75,0Z" transform="translate(-24.23 -25.91)"/><path class="cls-1" d="M224.74,58.77a3.42,3.42,0,0,0-.14-1.13c-.1-.32-.19-.65-.3-1s-.17-.61-.25-.9-.16-.38,0-.52a4.54,4.54,0,0,1,.63-.09,3.19,3.19,0,0,0,.88-.47,2.26,2.26,0,0,1,.36-.27c.2-.09.4-.12.6-.23a6.14,6.14,0,0,0,.94-.5,4.08,4.08,0,0,1,.79-.55c.38-.19.49-.05.64.33a.7.7,0,0,1-.11.89,4.57,4.57,0,0,0-.67.74,5.09,5.09,0,0,1-.66.71c-.22.25-.37.56-.6.81s-.51.39-.72.63a3.73,3.73,0,0,1-.35.41,3.07,3.07,0,0,0-.42.44,4.42,4.42,0,0,1-.89,1c.05-.36.45-.64.67-.9a8.22,8.22,0,0,1,.66-.75c.35-.32.74-.52,1.05-.87.15-.17.34-.27.49-.43s.23-.32.35-.47.48-.82.8-1A10.77,10.77,0,0,1,227.38,56a9.17,9.17,0,0,0-1.22,1.3c-.2.3-.45.57-.63.88s-.26.59-.48.66c-.29-.23.8-1.49,1-1.72s.54-.59.54-.92c-.44.79-1.08,1.77-2.08,1.89-.47.06-.46-.59-.51-.94a5.42,5.42,0,0,1,0-1.58c.28,0,.45.43.6.58a1.46,1.46,0,0,0,.81.39c.23-.45,0-1.44-.63-.88-.45.41-.39,1.76.43,1.64.27,0,.82-.42.6-.71a.52.52,0,0,0-.78-.06c-.32.41.24.51.52.23.11-.11.27-.31.12-.46a.21.21,0,0,0-.28,0c.54-.45-.42-.88-.83-.57.85.65,2-.75,2.49-1.31a2.85,2.85,0,0,0-.38,1.93c.26-.1.83-.94.51-1.21-.32-.06-.46.33-.55.55s-.29.63-.43,1-.21.75-.34,1.12c-.06.17-.14.46-.31.54a5.4,5.4,0,0,1,.74-1.41c.37-.62.64-1.28,1-1.94a5.25,5.25,0,0,1,1.39-1.83c.35.3-.19,1.19-.37,1.51s-.82,1.21-1.08,1.06a1.27,1.27,0,0,1,.27-.63c.07-.11.2-.21.15-.34a.77.77,0,0,0-.39.1,2,2,0,0,1-.67.11,3.73,3.73,0,0,0-1.33.32c-.37.16-.35.43,0,.54s.89-.08,1.16.1a1.64,1.64,0,0,1-.27,1,7.16,7.16,0,0,1-.35.93c.23-.13.35-.4.52-.59a9.32,9.32,0,0,1,.7-.67c.38-.34.81-.64,1.16-1a6.44,6.44,0,0,0,.79-1.07,1.77,1.77,0,0,0,.22-.53c.05-.21,0-.45.22-.6" transform="translate(-24.23 -25.91)"/><path class="cls-1" d="M225.11,58.77a6.52,6.52,0,0,0-.35-1.87c-.15-.47-.5-1.05-.15-1.34s.87-.36,1.17-.53c.52-.31,1.08-.51,1.61-.8.14-.08.79-.58.8-.58.38.09-.1.9-.14,1A12.3,12.3,0,0,1,227,55.9c-.43.55-.95,1-1.41,1.5a13.66,13.66,0,0,1-1.3,1.42l.63.36c.34-.91,1.47-1.63,2.16-2.24s1.09-1.45,1.77-2l-.59-.45c-.6.8-1.33,1.42-2,2.16-.51.58-.85,1.49-1.44,2l.59.08c-.11-.2,1.5-1.93,1.59-2.35a.38.38,0,0,0-.69-.29c-.28.49-.94,1.77-1.6,1.45s-.39-1.33-.33-1.88l-.47.36c.21.05.34.41.51.54a2,2,0,0,0,.9.43.38.38,0,0,0,.46-.26c.51-1.5-1.32-2.08-1.62-.53-.11.58.08,1.37.73,1.54a1.16,1.16,0,0,0,1.34-.83c.13-1.54-2.48-.49-1.46.34s2-1.6.52-1.26l.42.55c.7-.91-.61-1.4-1.35-1.08a.38.38,0,0,0,0,.65c1.18.65,2.25-.52,2.95-1.37l-.59-.45a3.43,3.43,0,0,0-.42,2.22.38.38,0,0,0,.55.22,1.39,1.39,0,0,0,.65-1.72.39.39,0,0,0-.42-.17c-1.33.2-1,2.54-1.79,3.26l.63.36c.33-.93,1-1.78,1.38-2.67a6.53,6.53,0,0,1,1.6-2.34l-.59-.08c.19.31-.7,2-1.13,2l.36.47c.1-.38.36-.6.41-1,0-.21-.09-.51-.36-.47-.69.08-2.56.18-2.94.9-.55,1,1.23.88,1.65,1l-.28-.36a6.4,6.4,0,0,1-.58,1.77.38.38,0,0,0,.59.45c.76-.64,1.53-1.43,2.24-2.13a6.21,6.21,0,0,0,.81-1c.3-.46.36-.95.62-1.42s-.42-.8-.65-.38-.25.76-.44,1.13a5,5,0,0,1-1.15,1.39c-.67.59-1.28,1.3-2,1.88l.59.45a5.36,5.36,0,0,0,.68-2.15.38.38,0,0,0-.28-.36,2.37,2.37,0,0,0-.66-.1c-.26,0-.44.08-.06,0,.57-.12,1.23-.28,1.81-.35l-.36-.47c0,.32-.32.64-.41,1a.38.38,0,0,0,.36.47c1,.07,2.3-2.3,1.77-3.13a.38.38,0,0,0-.59-.08,7,7,0,0,0-1.72,2.49c-.45,1-1.1,1.85-1.46,2.85-.13.37.37.61.63.36a2.21,2.21,0,0,0,.51-1.08c.09-.29.45-1.92.95-2l-.42-.17a.83.83,0,0,1-.38.7l.55.22a2.6,2.6,0,0,1,.34-1.64c.16-.35-.3-.81-.59-.45s-1.28,1.68-2,1.26V56l.32.06c-.21.28.14.62.42.55-1.22.28-.19-.92-.44-.19l.46-.26c-.69-.15-.78-.81-1.41-1a.38.38,0,0,0-.47.36c-.07.66-.23,2.56.67,2.86,1.15.38,2.21-1.28,2.65-2l-.69-.29C226,57,224.18,58,224.73,59a.38.38,0,0,0,.59.08c.69-.55,1.07-1.57,1.69-2.22a22.1,22.1,0,0,0,1.86-2.05c.27-.36-.29-.71-.59-.45a6.26,6.26,0,0,0-.86,1.08,9,9,0,0,1-1.53,1.45A5.75,5.75,0,0,0,224.15,59c-.15.38.37.58.63.36.67-.56,1.15-1.33,1.77-1.94s1.16-1.2,1.72-1.85c.42-.48,1.18-1.08,1.12-1.8,0-.46-.31-1-.82-1.06s-1.39.77-1.89,1c-.82.41-1.66.78-2.47,1.12-.38.16-.6.26-.6.75,0,1.05.73,2.09.75,3.18a.38.38,0,0,0,.75,0Z" transform="translate(-24.23 -25.91)"/><path class="cls-4" d="M192.92,60.5c9.88,5.11,16.08,3.05,16.76,6,.92,4-9.5,13.66-20.15,11.36-7.8-1.68-12.29-9.05-13.56-11.14-4.18-6.86-4.43-14-3.6-17.09.16-.61.57-2.13,1.67-2.57,1.29-.53,2.83.72,3.38,1.17C177.43,48.22,188,57.93,192.92,60.5Z" transform="translate(-24.23 -25.91)"/><path class="cls-4" d="M184.44,66.94c7.12.54,10.65-2.06,11.61-.57,1.29,2-3.53,9.88-10.63,11.09-5.2.89-9.34-2.19-10.51-3.06-3.85-2.87-5.28-6.78-5.31-8.73a2.33,2.33,0,0,1,.59-1.83,2.7,2.7,0,0,1,2.34-.14S180.87,66.67,184.44,66.94Z" transform="translate(-24.23 -25.91)"/><path class="cls-4" d="M181.74,76.79c4.2.19,5.84-1.55,6.63-.62,1.06,1.25-.52,6.35-4.44,7.28-2.87.68-5.74-1.18-6.55-1.71A10.68,10.68,0,0,1,173,76.31c-.06-.24-.22-.84.06-1.18s1.06-.21,1.33-.14C174.34,75,179.64,76.69,181.74,76.79Z" transform="translate(-24.23 -25.91)"/><text class="cls-5" transform="translate(5.23 47.74)">Share this</text></svg>